<svg xmlns="http://www.w3.org/2000/svg" width="860" height="2218" viewBox="0 0 860 2218" font-family="-apple-system,BlinkMacSystemFont,'Segoe UI',Helvetica,Arial,sans-serif" role="img" aria-label="Vertical timeline of skills by engagement, 2019 to today">
<rect width="860" height="2218" rx="14" fill="#0d1117"/>
<rect x=".5" y=".5" width="859" height="2217" rx="14" fill="none" stroke="#30363d"/>
<text x="28" y="42" font-size="22" font-weight="700" fill="#e6edf3">Skills, as they were used</text>
<text x="28" y="64" font-size="12.5" fill="#8b949e">Newest first. Every chip is a tool from a real engagement, not a self-rated level.</text>
<rect x="28" y="78" width="46" height="22" rx="11" fill="#818cf8"/>
<text x="51" y="93" font-size="11.5" font-weight="600" text-anchor="middle" fill="#0d1117">core</text>
<text x="84" y="93" font-size="11.5" fill="#8b949e">central to the work</text>
<rect x="228.75" y="78.75" width="76.5" height="20.5" rx="10.25" fill="none" stroke="#818cf8" stroke-width="1.5"/>
<text x="267" y="93" font-size="11.5" font-weight="600" text-anchor="middle" fill="#818cf8">supporting</text>
<text x="316" y="93" font-size="11.5" fill="#8b949e">used alongside</text>
<line x1="128" y1="122" x2="128" y2="2158" stroke="#30363d" stroke-width="3" stroke-linecap="round"/>
<rect x="114" y="122" width="722" height="30" rx="15" fill="#e6edf3"/>
<text x="134" y="141.5" font-size="13" font-weight="700" fill="#0d1117">Dedagroup AI US</text>
<text x="830" y="141.5" font-size="11.5" text-anchor="end" fill="#0d1117" fill-opacity=".75">Sep 2026 – now</text>
<circle cx="128" cy="188" r="6" fill="#0d1117" stroke="#8b949e" stroke-width="2.5"/>
<rect x="162" y="166" width="674" height="184" rx="12" fill="#161b22" stroke="#30363d"/>
<text x="178" y="192" font-size="14" font-weight="700" fill="#e6edf3">Senior Data Scientist, Gen AI &amp; LLMs</text>
<text x="178" y="212" font-size="12" fill="#8b949e">ML and GenAI use cases, including credit scoring, on Python, Spring Boot and Dagster, deployed on Kubernetes.</text>
<rect x="178.0" y="226" width="61.8" height="22" rx="11" fill="#818cf8"/>
<text x="208.9" y="241" font-size="11.5" font-weight="600" text-anchor="middle" fill="#0d1117">Python</text>
<rect x="245.8" y="226" width="93.3" height="22" rx="11" fill="#818cf8"/>
<text x="292.4" y="241" font-size="11.5" font-weight="600" text-anchor="middle" fill="#0d1117">Spring Boot</text>
<rect x="345.1" y="226" width="61.8" height="22" rx="11" fill="#818cf8"/>
<text x="376.0" y="241" font-size="11.5" font-weight="600" text-anchor="middle" fill="#0d1117">Vue.js</text>
<rect x="412.9" y="226" width="150.0" height="22" rx="11" fill="#e879f9"/>
<text x="487.9" y="241" font-size="11.5" font-weight="600" text-anchor="middle" fill="#0d1117">LLM APIs &amp; prompting</text>
<rect x="568.9" y="226" width="143.7" height="22" rx="11" fill="#e879f9"/>
<text x="640.8" y="241" font-size="11.5" font-weight="600" text-anchor="middle" fill="#0d1117">RAG / vector search</text>
<rect x="178.0" y="254" width="156.3" height="22" rx="11" fill="#e879f9"/>
<text x="256.1" y="269" font-size="11.5" font-weight="600" text-anchor="middle" fill="#0d1117">Agents &amp; tool-calling</text>
<rect x="340.3" y="254" width="124.8" height="22" rx="11" fill="#2dd4bf"/>
<text x="402.7" y="269" font-size="11.5" font-weight="600" text-anchor="middle" fill="#0d1117">Machine learning</text>
<rect x="471.1" y="254" width="112.2" height="22" rx="11" fill="#2dd4bf"/>
<text x="527.2" y="269" font-size="11.5" font-weight="600" text-anchor="middle" fill="#0d1117">Credit scoring</text>
<rect x="589.3" y="254" width="99.6" height="22" rx="11" fill="#2dd4bf"/>
<text x="639.1" y="269" font-size="11.5" font-weight="600" text-anchor="middle" fill="#0d1117">Scikit-learn</text>
<rect x="694.9" y="254" width="61.8" height="22" rx="11" fill="#2dd4bf"/>
<text x="725.8" y="269" font-size="11.5" font-weight="600" text-anchor="middle" fill="#0d1117">MLflow</text>
<rect x="178.0" y="282" width="219.3" height="22" rx="11" fill="#2dd4bf"/>
<text x="287.6" y="297" font-size="11.5" font-weight="600" text-anchor="middle" fill="#0d1117">Optuna (tuning &amp; observability)</text>
<rect x="403.3" y="282" width="150.0" height="22" rx="11" fill="#2dd4bf"/>
<text x="478.3" y="297" font-size="11.5" font-weight="600" text-anchor="middle" fill="#0d1117">XAI (explainability)</text>
<rect x="559.3" y="282" width="257.1" height="22" rx="11" fill="#2dd4bf"/>
<text x="687.8" y="297" font-size="11.5" font-weight="600" text-anchor="middle" fill="#0d1117">Orchestration (Dagster, Airflow, ION)</text>
<rect x="178.0" y="310" width="124.8" height="22" rx="11" fill="#4ade80"/>
<text x="240.4" y="325" font-size="11.5" font-weight="600" text-anchor="middle" fill="#0d1117">SQL / PostgreSQL</text>
<rect x="308.8" y="310" width="131.1" height="22" rx="11" fill="#fbbf24"/>
<text x="374.4" y="325" font-size="11.5" font-weight="600" text-anchor="middle" fill="#0d1117">Kubernetes / Helm</text>
<rect x="114" y="374" width="722" height="30" rx="15" fill="#e6edf3"/>
<text x="134" y="393.5" font-size="13" font-weight="700" fill="#0d1117">Infor IDeAS</text>
<text x="830" y="393.5" font-size="11.5" text-anchor="end" fill="#0d1117" fill-opacity=".75">Apr 2024 – Aug 2026</text>
<circle cx="128" cy="440" r="6" fill="#0d1117" stroke="#8b949e" stroke-width="2.5"/>
<rect x="162" y="418" width="674" height="156" rx="12" fill="#161b22" stroke="#30363d"/>
<text x="178" y="444" font-size="14" font-weight="700" fill="#e6edf3">Data Science Engineer</text>
<text x="178" y="464" font-size="12" fill="#8b949e">Inventory optimization, forecasting and pricing on ERP data. 5 PoCs, 2 converted to subscriptions.</text>
<rect x="178.0" y="478" width="61.8" height="22" rx="11" fill="#818cf8"/>
<text x="208.9" y="493" font-size="11.5" font-weight="600" text-anchor="middle" fill="#0d1117">Python</text>
<rect x="245.8" y="478" width="124.8" height="22" rx="11" fill="#2dd4bf"/>
<text x="308.2" y="493" font-size="11.5" font-weight="600" text-anchor="middle" fill="#0d1117">Machine learning</text>
<rect x="376.6" y="478" width="112.2" height="22" rx="11" fill="#2dd4bf"/>
<text x="432.7" y="493" font-size="11.5" font-weight="600" text-anchor="middle" fill="#0d1117">Pandas / NumPy</text>
<rect x="494.8" y="478" width="68.1" height="22" rx="11" fill="#2dd4bf"/>
<text x="528.9" y="493" font-size="11.5" font-weight="600" text-anchor="middle" fill="#0d1117">PySpark</text>
<rect x="568.9" y="478" width="213.0" height="22" rx="11" fill="#2dd4bf"/>
<text x="675.4" y="493" font-size="11.5" font-weight="600" text-anchor="middle" fill="#0d1117">Forecasting (XGBoost, Prophet)</text>
<rect x="178.0" y="506" width="181.5" height="22" rx="11" fill="#2dd4bf"/>
<text x="268.8" y="521" font-size="11.5" font-weight="600" text-anchor="middle" fill="#0d1117">Simulation &amp; optimization</text>
<rect x="365.5" y="506" width="61.8" height="22" rx="11" fill="#2dd4bf"/>
<text x="396.4" y="521" font-size="11.5" font-weight="600" text-anchor="middle" fill="#0d1117">MLflow</text>
<rect x="433.3" y="506" width="219.3" height="22" rx="11" fill="#2dd4bf"/>
<text x="543.0" y="521" font-size="11.5" font-weight="600" text-anchor="middle" fill="#0d1117">Optuna (tuning &amp; observability)</text>
<rect x="658.6" y="506" width="150.0" height="22" rx="11" fill="#2dd4bf"/>
<text x="733.6" y="521" font-size="11.5" font-weight="600" text-anchor="middle" fill="#0d1117">XAI (explainability)</text>
<rect x="178.0" y="534" width="257.1" height="22" rx="11" fill="#2dd4bf"/>
<text x="306.6" y="549" font-size="11.5" font-weight="600" text-anchor="middle" fill="#0d1117">Orchestration (Dagster, Airflow, ION)</text>
<rect x="441.9" y="534.75" width="117.0" height="20.5" rx="10.25" fill="none" stroke="#2dd4bf" stroke-width="1.5"/>
<text x="500.4" y="549" font-size="11.5" font-weight="600" text-anchor="middle" fill="#2dd4bf">Tableau / Birst</text>
<rect x="565.6" y="534" width="42.9" height="22" rx="11" fill="#4ade80"/>
<text x="587.1" y="549" font-size="11.5" font-weight="600" text-anchor="middle" fill="#0d1117">SQL</text>
<rect x="614.5" y="534" width="112.2" height="22" rx="11" fill="#4ade80"/>
<text x="670.6" y="549" font-size="11.5" font-weight="600" text-anchor="middle" fill="#0d1117">S3 / Data Lake</text>
<rect x="114" y="598" width="722" height="30" rx="15" fill="#e6edf3"/>
<text x="134" y="617.5" font-size="13" font-weight="700" fill="#0d1117">Elyadata</text>
<text x="830" y="617.5" font-size="11.5" text-anchor="end" fill="#0d1117" fill-opacity=".75">Sep 2022 – Apr 2024</text>
<circle cx="128" cy="664" r="6" fill="#0d1117" stroke="#8b949e" stroke-width="2.5"/>
<rect x="162" y="642" width="674" height="156" rx="12" fill="#161b22" stroke="#30363d"/>
<text x="178" y="668" font-size="14" font-weight="700" fill="#e6edf3">Software Consultant · CAHPP</text>
<text x="820" y="668" font-size="11.5" text-anchor="end" fill="#8b949e">Nov 2023 – Feb 2024</text>
<text x="178" y="688" font-size="12" fill="#8b949e">Medical product mapping with NER + fuzzy matching, &gt;90% accuracy.</text>
<rect x="178.0" y="702" width="68.1" height="22" rx="11" fill="#818cf8"/>
<text x="212.1" y="717" font-size="11.5" font-weight="600" text-anchor="middle" fill="#0d1117">FastAPI</text>
<rect x="252.1" y="702" width="61.8" height="22" rx="11" fill="#818cf8"/>
<text x="283.0" y="717" font-size="11.5" font-weight="600" text-anchor="middle" fill="#0d1117">Celery</text>
<rect x="319.9" y="702" width="143.7" height="22" rx="11" fill="#818cf8"/>
<text x="391.8" y="717" font-size="11.5" font-weight="600" text-anchor="middle" fill="#0d1117">Microservices / BFF</text>
<rect x="469.6" y="702" width="150.0" height="22" rx="11" fill="#818cf8"/>
<text x="544.6" y="717" font-size="11.5" font-weight="600" text-anchor="middle" fill="#0d1117">Domain-Driven Design</text>
<rect x="625.6" y="702" width="80.7" height="22" rx="11" fill="#e879f9"/>
<text x="665.9" y="717" font-size="11.5" font-weight="600" text-anchor="middle" fill="#0d1117">NLP / NER</text>
<rect x="178.8" y="730.75" width="148.5" height="20.5" rx="10.25" fill="none" stroke="#e879f9" stroke-width="1.5"/>
<text x="253.0" y="745" font-size="11.5" font-weight="600" text-anchor="middle" fill="#e879f9">LLM APIs &amp; prompting</text>
<rect x="334.0" y="730" width="80.7" height="22" rx="11" fill="#e879f9"/>
<text x="374.4" y="745" font-size="11.5" font-weight="600" text-anchor="middle" fill="#0d1117">LangChain</text>
<rect x="421.4" y="730.75" width="142.2" height="20.5" rx="10.25" fill="none" stroke="#e879f9" stroke-width="1.5"/>
<text x="492.5" y="745" font-size="11.5" font-weight="600" text-anchor="middle" fill="#e879f9">RAG / vector search</text>
<rect x="570.4" y="730" width="124.8" height="22" rx="11" fill="#4ade80"/>
<text x="632.8" y="745" font-size="11.5" font-weight="600" text-anchor="middle" fill="#0d1117">SQL / PostgreSQL</text>
<rect x="178.8" y="758.75" width="129.6" height="20.5" rx="10.25" fill="none" stroke="#4ade80" stroke-width="1.5"/>
<text x="243.6" y="773" font-size="11.5" font-weight="600" text-anchor="middle" fill="#4ade80">pgvector / Milvus</text>
<circle cx="128" cy="834" r="6" fill="#0d1117" stroke="#8b949e" stroke-width="2.5"/>
<rect x="162" y="812" width="674" height="128" rx="12" fill="#161b22" stroke="#30363d"/>
<text x="178" y="838" font-size="14" font-weight="700" fill="#e6edf3">ELGENN internal product</text>
<text x="820" y="838" font-size="11.5" text-anchor="end" fill="#8b949e">May 2023 – Nov 2023</text>
<text x="178" y="858" font-size="12" fill="#8b949e">LLM inference APIs, document RAG, agentic SQL pipeline.</text>
<rect x="178.0" y="872" width="68.1" height="22" rx="11" fill="#818cf8"/>
<text x="212.1" y="887" font-size="11.5" font-weight="600" text-anchor="middle" fill="#0d1117">FastAPI</text>
<rect x="252.1" y="872" width="61.8" height="22" rx="11" fill="#818cf8"/>
<text x="283.0" y="887" font-size="11.5" font-weight="600" text-anchor="middle" fill="#0d1117">Celery</text>
<rect x="319.9" y="872" width="61.8" height="22" rx="11" fill="#818cf8"/>
<text x="350.8" y="887" font-size="11.5" font-weight="600" text-anchor="middle" fill="#0d1117">Locust</text>
<rect x="387.7" y="872" width="150.0" height="22" rx="11" fill="#e879f9"/>
<text x="462.7" y="887" font-size="11.5" font-weight="600" text-anchor="middle" fill="#0d1117">LLM APIs &amp; prompting</text>
<rect x="543.7" y="872" width="80.7" height="22" rx="11" fill="#e879f9"/>
<text x="584.1" y="887" font-size="11.5" font-weight="600" text-anchor="middle" fill="#0d1117">LangChain</text>
<rect x="630.4" y="872" width="143.7" height="22" rx="11" fill="#e879f9"/>
<text x="702.2" y="887" font-size="11.5" font-weight="600" text-anchor="middle" fill="#0d1117">RAG / vector search</text>
<rect x="178.0" y="900" width="156.3" height="22" rx="11" fill="#e879f9"/>
<text x="256.1" y="915" font-size="11.5" font-weight="600" text-anchor="middle" fill="#0d1117">Agents &amp; tool-calling</text>
<rect x="341.0" y="900.75" width="60.3" height="20.5" rx="10.25" fill="none" stroke="#2dd4bf" stroke-width="1.5"/>
<text x="371.2" y="915" font-size="11.5" font-weight="600" text-anchor="middle" fill="#2dd4bf">MLflow</text>
<rect x="408.8" y="900.75" width="54.0" height="20.5" rx="10.25" fill="none" stroke="#2dd4bf" stroke-width="1.5"/>
<text x="435.8" y="915" font-size="11.5" font-weight="600" text-anchor="middle" fill="#2dd4bf">Kedro</text>
<rect x="469.6" y="900" width="124.8" height="22" rx="11" fill="#4ade80"/>
<text x="532.0" y="915" font-size="11.5" font-weight="600" text-anchor="middle" fill="#0d1117">SQL / PostgreSQL</text>
<rect x="600.4" y="900" width="131.1" height="22" rx="11" fill="#4ade80"/>
<text x="665.9" y="915" font-size="11.5" font-weight="600" text-anchor="middle" fill="#0d1117">pgvector / Milvus</text>
<circle cx="128" cy="976" r="6" fill="#0d1117" stroke="#8b949e" stroke-width="2.5"/>
<rect x="162" y="954" width="674" height="156" rx="12" fill="#161b22" stroke="#30363d"/>
<text x="178" y="980" font-size="14" font-weight="700" fill="#e6edf3">Software Consultant · Allianz</text>
<text x="820" y="980" font-size="11.5" text-anchor="end" fill="#8b949e">Dec 2022 – Apr 2023</text>
<text x="178" y="1000" font-size="12" fill="#8b949e">Real-time ML inference microservices for insurance models.</text>
<rect x="178.0" y="1014" width="68.1" height="22" rx="11" fill="#818cf8"/>
<text x="212.1" y="1029" font-size="11.5" font-weight="600" text-anchor="middle" fill="#0d1117">FastAPI</text>
<rect x="252.1" y="1014" width="143.7" height="22" rx="11" fill="#818cf8"/>
<text x="323.9" y="1029" font-size="11.5" font-weight="600" text-anchor="middle" fill="#0d1117">Microservices / BFF</text>
<rect x="401.8" y="1014" width="118.5" height="22" rx="11" fill="#818cf8"/>
<text x="461.0" y="1029" font-size="11.5" font-weight="600" text-anchor="middle" fill="#0d1117">Auth (JWT, 2FA)</text>
<rect x="526.3" y="1014" width="61.8" height="22" rx="11" fill="#818cf8"/>
<text x="557.2" y="1029" font-size="11.5" font-weight="600" text-anchor="middle" fill="#0d1117">Pytest</text>
<rect x="594.1" y="1014" width="68.1" height="22" rx="11" fill="#818cf8"/>
<text x="628.1" y="1029" font-size="11.5" font-weight="600" text-anchor="middle" fill="#0d1117">Angular</text>
<rect x="668.9" y="1014.75" width="110.7" height="20.5" rx="10.25" fill="none" stroke="#2dd4bf" stroke-width="1.5"/>
<text x="724.3" y="1029" font-size="11.5" font-weight="600" text-anchor="middle" fill="#2dd4bf">Pandas / NumPy</text>
<rect x="178.8" y="1042.75" width="98.1" height="20.5" rx="10.25" fill="none" stroke="#2dd4bf" stroke-width="1.5"/>
<text x="227.8" y="1057" font-size="11.5" font-weight="600" text-anchor="middle" fill="#2dd4bf">Scikit-learn</text>
<rect x="283.6" y="1042" width="124.8" height="22" rx="11" fill="#4ade80"/>
<text x="346.0" y="1057" font-size="11.5" font-weight="600" text-anchor="middle" fill="#0d1117">SQL / PostgreSQL</text>
<rect x="415.1" y="1042.75" width="66.6" height="20.5" rx="10.25" fill="none" stroke="#4ade80" stroke-width="1.5"/>
<text x="448.4" y="1057" font-size="11.5" font-weight="600" text-anchor="middle" fill="#4ade80">MongoDB</text>
<rect x="488.5" y="1042" width="61.8" height="22" rx="11" fill="#fbbf24"/>
<text x="519.4" y="1057" font-size="11.5" font-weight="600" text-anchor="middle" fill="#0d1117">Docker</text>
<rect x="556.3" y="1042" width="131.1" height="22" rx="11" fill="#fbbf24"/>
<text x="621.8" y="1057" font-size="11.5" font-weight="600" text-anchor="middle" fill="#0d1117">Kubernetes / Helm</text>
<rect x="693.4" y="1042" width="105.9" height="22" rx="11" fill="#fbbf24"/>
<text x="746.4" y="1057" font-size="11.5" font-weight="600" text-anchor="middle" fill="#0d1117">Jenkins CI/CD</text>
<rect x="178.8" y="1070.75" width="85.5" height="20.5" rx="10.25" fill="none" stroke="#fbbf24" stroke-width="1.5"/>
<text x="221.5" y="1085" font-size="11.5" font-weight="600" text-anchor="middle" fill="#fbbf24">Azure Blob</text>
<circle cx="128" cy="1146" r="6" fill="#0d1117" stroke="#8b949e" stroke-width="2.5"/>
<rect x="162" y="1124" width="674" height="100" rx="12" fill="#161b22" stroke="#30363d"/>
<text x="178" y="1150" font-size="14" font-weight="700" fill="#e6edf3">Software Data Engineer · Algobrain</text>
<text x="820" y="1150" font-size="11.5" text-anchor="end" fill="#8b949e">Sep 2022 – Apr 2023</text>
<text x="178" y="1170" font-size="12" fill="#8b949e">Kafka event-driven workflows, OCR and speech-to-text integrations.</text>
<rect x="178.0" y="1184" width="55.5" height="22" rx="11" fill="#818cf8"/>
<text x="205.8" y="1199" font-size="11.5" font-weight="600" text-anchor="middle" fill="#0d1117">Kafka</text>
<rect x="240.2" y="1184.75" width="129.6" height="20.5" rx="10.25" fill="none" stroke="#e879f9" stroke-width="1.5"/>
<text x="305.1" y="1199" font-size="11.5" font-weight="600" text-anchor="middle" fill="#e879f9">Document AI / OCR</text>
<rect x="376.6" y="1184" width="168.9" height="22" rx="11" fill="#e879f9"/>
<text x="461.1" y="1199" font-size="11.5" font-weight="600" text-anchor="middle" fill="#0d1117">Speech APIs (TTS / STT)</text>
<text x="162" y="1253" font-size="10.5" font-weight="700" letter-spacing="1" fill="#8b949e">THROUGHOUT</text>
<rect x="280.0" y="1238" width="61.8" height="22" rx="11" fill="#818cf8"/>
<text x="310.9" y="1253" font-size="11.5" font-weight="600" text-anchor="middle" fill="#0d1117">Python</text>
<rect x="348.6" y="1238.75" width="167.4" height="20.5" rx="10.25" fill="none" stroke="#e879f9" stroke-width="1.5"/>
<text x="432.2" y="1253" font-size="11.5" font-weight="600" text-anchor="middle" fill="#e879f9">Speech APIs (TTS / STT)</text>
<rect x="523.5" y="1238.75" width="66.6" height="20.5" rx="10.25" fill="none" stroke="#4ade80" stroke-width="1.5"/>
<text x="556.8" y="1253" font-size="11.5" font-weight="600" text-anchor="middle" fill="#4ade80">MongoDB</text>
<rect x="597.5" y="1238.75" width="104.4" height="20.5" rx="10.25" fill="none" stroke="#4ade80" stroke-width="1.5"/>
<text x="649.8" y="1253" font-size="11.5" font-weight="600" text-anchor="middle" fill="#4ade80">Elasticsearch</text>
<rect x="114" y="1286" width="722" height="30" rx="15" fill="#e6edf3"/>
<text x="134" y="1305.5" font-size="13" font-weight="700" fill="#0d1117">UBIAI</text>
<text x="830" y="1305.5" font-size="11.5" text-anchor="end" fill="#0d1117" fill-opacity=".75">Nov 2021 – Sep 2022</text>
<circle cx="128" cy="1352" r="6" fill="#0d1117" stroke="#8b949e" stroke-width="2.5"/>
<rect x="162" y="1330" width="674" height="100" rx="12" fill="#161b22" stroke="#30363d"/>
<text x="178" y="1356" font-size="14" font-weight="700" fill="#e6edf3">Annotation tool platform</text>
<text x="820" y="1356" font-size="11.5" text-anchor="end" fill="#8b949e">May 2022 – Sep 2022</text>
<text x="178" y="1376" font-size="12" fill="#8b949e">GPT-3 document understanding, LayoutLM serving moved to Lambda.</text>
<rect x="178.0" y="1390" width="131.1" height="22" rx="11" fill="#e879f9"/>
<text x="243.6" y="1405" font-size="11.5" font-weight="600" text-anchor="middle" fill="#0d1117">Document AI / OCR</text>
<rect x="315.1" y="1390" width="150.0" height="22" rx="11" fill="#e879f9"/>
<text x="390.1" y="1405" font-size="11.5" font-weight="600" text-anchor="middle" fill="#0d1117">LLM APIs &amp; prompting</text>
<circle cx="128" cy="1466" r="6" fill="#0d1117" stroke="#8b949e" stroke-width="2.5"/>
<rect x="162" y="1444" width="674" height="128" rx="12" fill="#161b22" stroke="#30363d"/>
<text x="178" y="1470" font-size="14" font-weight="700" fill="#e6edf3">NLP scientific documents platform</text>
<text x="820" y="1470" font-size="11.5" text-anchor="end" fill="#8b949e">Dec 2021 – May 2022</text>
<text x="178" y="1490" font-size="12" fill="#8b949e">Django backend on AWS, ~27x faster batch ingestion.</text>
<rect x="178.0" y="1504" width="61.8" height="22" rx="11" fill="#818cf8"/>
<text x="208.9" y="1519" font-size="11.5" font-weight="600" text-anchor="middle" fill="#0d1117">Django</text>
<rect x="246.6" y="1504.75" width="66.6" height="20.5" rx="10.25" fill="none" stroke="#818cf8" stroke-width="1.5"/>
<text x="279.9" y="1519" font-size="11.5" font-weight="600" text-anchor="middle" fill="#818cf8">FastAPI</text>
<rect x="320.6" y="1504.75" width="66.6" height="20.5" rx="10.25" fill="none" stroke="#818cf8" stroke-width="1.5"/>
<text x="353.9" y="1519" font-size="11.5" font-weight="600" text-anchor="middle" fill="#818cf8">Angular</text>
<rect x="394.0" y="1504" width="168.9" height="22" rx="11" fill="#e879f9"/>
<text x="478.4" y="1519" font-size="11.5" font-weight="600" text-anchor="middle" fill="#0d1117">Gensim / topic modeling</text>
<rect x="568.9" y="1504" width="112.2" height="22" rx="11" fill="#2dd4bf"/>
<text x="625.0" y="1519" font-size="11.5" font-weight="600" text-anchor="middle" fill="#0d1117">Pandas / NumPy</text>
<rect x="687.8" y="1504.75" width="54.0" height="20.5" rx="10.25" fill="none" stroke="#4ade80" stroke-width="1.5"/>
<text x="714.8" y="1519" font-size="11.5" font-weight="600" text-anchor="middle" fill="#4ade80">Neo4j</text>
<rect x="178.8" y="1532.75" width="110.7" height="20.5" rx="10.25" fill="none" stroke="#4ade80" stroke-width="1.5"/>
<text x="234.1" y="1547" font-size="11.5" font-weight="600" text-anchor="middle" fill="#4ade80">S3 / Data Lake</text>
<rect x="296.2" y="1532" width="61.8" height="22" rx="11" fill="#fbbf24"/>
<text x="327.1" y="1547" font-size="11.5" font-weight="600" text-anchor="middle" fill="#0d1117">Docker</text>
<text x="162" y="1601" font-size="10.5" font-weight="700" letter-spacing="1" fill="#8b949e">THROUGHOUT</text>
<rect x="280.0" y="1586" width="61.8" height="22" rx="11" fill="#818cf8"/>
<text x="310.9" y="1601" font-size="11.5" font-weight="600" text-anchor="middle" fill="#0d1117">Python</text>
<rect x="347.8" y="1586" width="80.7" height="22" rx="11" fill="#e879f9"/>
<text x="388.1" y="1601" font-size="11.5" font-weight="600" text-anchor="middle" fill="#0d1117">NLP / NER</text>
<rect x="434.5" y="1586" width="55.5" height="22" rx="11" fill="#e879f9"/>
<text x="462.2" y="1601" font-size="11.5" font-weight="600" text-anchor="middle" fill="#0d1117">spaCy</text>
<rect x="496.0" y="1586" width="49.2" height="22" rx="11" fill="#e879f9"/>
<text x="520.6" y="1601" font-size="11.5" font-weight="600" text-anchor="middle" fill="#0d1117">NLTK</text>
<rect x="551.2" y="1586" width="162.6" height="22" rx="11" fill="#fbbf24"/>
<text x="632.5" y="1601" font-size="11.5" font-weight="600" text-anchor="middle" fill="#0d1117">AWS (Lambda, ECS, EC2)</text>
<rect x="114" y="1634" width="722" height="30" rx="15" fill="#e6edf3"/>
<text x="134" y="1653.5" font-size="13" font-weight="700" fill="#0d1117">ENICar, student years</text>
<text x="830" y="1653.5" font-size="11.5" text-anchor="end" fill="#0d1117" fill-opacity=".75">2018 – 2021</text>
<circle cx="128" cy="1700" r="6" fill="#0d1117" stroke="#8b949e" stroke-width="2.5"/>
<rect x="162" y="1678" width="674" height="100" rx="12" fill="#161b22" stroke="#30363d"/>
<text x="178" y="1704" font-size="14" font-weight="700" fill="#e6edf3">ML Intern, graduation project · Talan</text>
<text x="820" y="1704" font-size="11.5" text-anchor="end" fill="#8b949e">Feb 2021 – Aug 2021</text>
<text x="178" y="1724" font-size="12" fill="#8b949e">Fake-news detection: satire and credibility models, bias metric, served as an API.</text>
<rect x="178.0" y="1738" width="61.8" height="22" rx="11" fill="#818cf8"/>
<text x="208.9" y="1753" font-size="11.5" font-weight="600" text-anchor="middle" fill="#0d1117">Python</text>
<rect x="245.8" y="1738" width="68.1" height="22" rx="11" fill="#818cf8"/>
<text x="279.9" y="1753" font-size="11.5" font-weight="600" text-anchor="middle" fill="#0d1117">FastAPI</text>
<rect x="319.9" y="1738" width="80.7" height="22" rx="11" fill="#e879f9"/>
<text x="360.2" y="1753" font-size="11.5" font-weight="600" text-anchor="middle" fill="#0d1117">NLP / NER</text>
<rect x="406.6" y="1738" width="200.4" height="22" rx="11" fill="#2dd4bf"/>
<text x="506.8" y="1753" font-size="11.5" font-weight="600" text-anchor="middle" fill="#0d1117">Web scraping (BS4, Selenium)</text>
<circle cx="128" cy="1814" r="6" fill="#0d1117" stroke="#8b949e" stroke-width="2.5"/>
<rect x="162" y="1792" width="674" height="100" rx="12" fill="#161b22" stroke="#30363d"/>
<text x="178" y="1818" font-size="14" font-weight="700" fill="#e6edf3">Data Science Intern · Travaris</text>
<text x="820" y="1818" font-size="11.5" text-anchor="end" fill="#8b949e">Jul 2020 – Aug 2020</text>
<text x="178" y="1838" font-size="12" fill="#8b949e">Geolocation clustering and a POI recommender prototype.</text>
<rect x="178.0" y="1852" width="61.8" height="22" rx="11" fill="#818cf8"/>
<text x="208.9" y="1867" font-size="11.5" font-weight="600" text-anchor="middle" fill="#0d1117">Python</text>
<rect x="245.8" y="1852" width="181.5" height="22" rx="11" fill="#e879f9"/>
<text x="336.6" y="1867" font-size="11.5" font-weight="600" text-anchor="middle" fill="#0d1117">Clustering &amp; recommenders</text>
<rect x="433.3" y="1852" width="200.4" height="22" rx="11" fill="#2dd4bf"/>
<text x="533.5" y="1867" font-size="11.5" font-weight="600" text-anchor="middle" fill="#0d1117">Web scraping (BS4, Selenium)</text>
<rect x="639.7" y="1852" width="68.1" height="22" rx="11" fill="#4ade80"/>
<text x="673.8" y="1867" font-size="11.5" font-weight="600" text-anchor="middle" fill="#0d1117">MongoDB</text>
<circle cx="128" cy="1928" r="6" fill="#0d1117" stroke="#8b949e" stroke-width="2.5"/>
<rect x="162" y="1906" width="674" height="128" rx="12" fill="#161b22" stroke="#30363d"/>
<text x="178" y="1932" font-size="14" font-weight="700" fill="#e6edf3">Student projects</text>
<text x="820" y="1932" font-size="11.5" text-anchor="end" fill="#8b949e">2019 – 2020</text>
<text x="178" y="1952" font-size="12" fill="#8b949e">MERN web app, Discord bots, news scraper, Java desktop app. #1 in a Kaggle ML competition.</text>
<rect x="178.0" y="1966" width="61.8" height="22" rx="11" fill="#818cf8"/>
<text x="208.9" y="1981" font-size="11.5" font-weight="600" text-anchor="middle" fill="#0d1117">Python</text>
<rect x="245.8" y="1966" width="49.2" height="22" rx="11" fill="#818cf8"/>
<text x="270.4" y="1981" font-size="11.5" font-weight="600" text-anchor="middle" fill="#0d1117">Java</text>
<rect x="301.0" y="1966" width="68.1" height="22" rx="11" fill="#818cf8"/>
<text x="335.1" y="1981" font-size="11.5" font-weight="600" text-anchor="middle" fill="#0d1117">C / C++</text>
<rect x="375.1" y="1966" width="162.6" height="22" rx="11" fill="#818cf8"/>
<text x="456.4" y="1981" font-size="11.5" font-weight="600" text-anchor="middle" fill="#0d1117">Node.js / React (MERN)</text>
<rect x="544.5" y="1966.75" width="54.0" height="20.5" rx="10.25" fill="none" stroke="#818cf8" stroke-width="1.5"/>
<text x="571.5" y="1981" font-size="11.5" font-weight="600" text-anchor="middle" fill="#818cf8">Flask</text>
<rect x="605.2" y="1966" width="137.4" height="22" rx="11" fill="#e879f9"/>
<text x="673.9" y="1981" font-size="11.5" font-weight="600" text-anchor="middle" fill="#0d1117">Keras / TensorFlow</text>
<rect x="178.8" y="1994.75" width="110.7" height="20.5" rx="10.25" fill="none" stroke="#2dd4bf" stroke-width="1.5"/>
<text x="234.1" y="2009" font-size="11.5" font-weight="600" text-anchor="middle" fill="#2dd4bf">Pandas / NumPy</text>
<rect x="296.9" y="1994.75" width="98.1" height="20.5" rx="10.25" fill="none" stroke="#2dd4bf" stroke-width="1.5"/>
<text x="346.0" y="2009" font-size="11.5" font-weight="600" text-anchor="middle" fill="#2dd4bf">Scikit-learn</text>
<rect x="401.8" y="1994" width="200.4" height="22" rx="11" fill="#2dd4bf"/>
<text x="502.0" y="2009" font-size="11.5" font-weight="600" text-anchor="middle" fill="#0d1117">Web scraping (BS4, Selenium)</text>
<rect x="608.2" y="1994" width="55.5" height="22" rx="11" fill="#4ade80"/>
<text x="636.0" y="2009" font-size="11.5" font-weight="600" text-anchor="middle" fill="#0d1117">MySQL</text>
<rect x="669.7" y="1994" width="68.1" height="22" rx="11" fill="#4ade80"/>
<text x="703.8" y="2009" font-size="11.5" font-weight="600" text-anchor="middle" fill="#0d1117">MongoDB</text>
<circle cx="128" cy="2070" r="6" fill="#0d1117" stroke="#8b949e" stroke-width="2.5"/>
<rect x="162" y="2048" width="674" height="100" rx="12" fill="#161b22" stroke="#30363d"/>
<text x="178" y="2074" font-size="14" font-weight="700" fill="#e6edf3">Java Developer Intern · Tunisie Telecom</text>
<text x="820" y="2074" font-size="11.5" text-anchor="end" fill="#8b949e">Aug 2019</text>
<text x="178" y="2094" font-size="12" fill="#8b949e">Java Swing + Apache POI utility for a regional recovery system.</text>
<rect x="178.0" y="2108" width="49.2" height="22" rx="11" fill="#818cf8"/>
<text x="202.6" y="2123" font-size="11.5" font-weight="600" text-anchor="middle" fill="#0d1117">Java</text>
<rect x="233.2" y="2108" width="55.5" height="22" rx="11" fill="#4ade80"/>
<text x="260.9" y="2123" font-size="11.5" font-weight="600" text-anchor="middle" fill="#0d1117">MySQL</text>
<circle cx="33" cy="2188" r="5" fill="#818cf8"/>
<text x="44" y="2192" font-size="11.5" fill="#8b949e">Backend &amp; Software</text>
<circle cx="178.60000000000002" cy="2188" r="5" fill="#e879f9"/>
<text x="189.60000000000002" y="2192" font-size="11.5" fill="#8b949e">LLMs &amp; NLP</text>
<circle cx="274.6" cy="2188" r="5" fill="#2dd4bf"/>
<text x="285.6" y="2192" font-size="11.5" fill="#8b949e">Data &amp; ML</text>
<circle cx="364.40000000000003" cy="2188" r="5" fill="#4ade80"/>
<text x="375.40000000000003" y="2192" font-size="11.5" fill="#8b949e">Databases &amp; Storage</text>
<circle cx="516.2" cy="2188" r="5" fill="#fbbf24"/>
<text x="527.2" y="2192" font-size="11.5" fill="#8b949e">Cloud &amp; DevOps</text>
<text x="832" y="2192" font-size="10.5" text-anchor="end" fill="#8b949e">generated by tools/skill_timeline.py</text>
</svg>